<svg width="150" height="150" viewBox="0 0 150 150" fill="none" xmlns="http://www.w3.org/2000/svg">
<path d="M137 75C137 109.242 109.242 137 75 137C40.7583 137 13 109.242 13 75C13 40.7583 40.7583 13 75 13C109.242 13 137 40.7583 137 75Z" fill="#FBFBFB"/>
<path d="M28.5062 97.1136H104.006C110.806 75.5136 96.1728 69.1136 88.0062 68.6136C79.0062 62.1136 58.5062 53.0136 48.5062 68.6136C17.7062 66.2136 22.3395 86.6136 28.5062 97.1136Z" fill="#E3E3E3"/>
<path d="M49.5062 89.1136H125.006C131.806 67.5136 117.173 61.1136 109.006 60.6136C100.006 54.1136 79.5062 45.0136 69.5062 60.6136C38.7062 58.2136 43.3395 78.6136 49.5062 89.1136Z" fill="#EEEEEE"/>
</svg>
