<svg width="124" height="158" viewBox="0 0 124 158" fill="none" xmlns="http://www.w3.org/2000/svg">
<path d="M124 76C124 110.242 96.2417 138 62 138C27.7583 138 0 110.242 0 76C0 41.7583 27.7583 14 62 14C96.2417 14 124 41.7583 124 76Z" fill="#FFE600"/>
<path d="M6.50617 45.1136H82.0062C88.8062 23.5136 74.1728 17.1136 66.0062 16.6136C57.0062 10.1136 36.5062 1.01357 26.5062 16.6136C-4.29383 14.2136 0.339508 34.6136 6.50617 45.1136Z" fill="#E3E3E3"/>
<rect x="56" y="91" width="41" height="67" fill="#1F769E"/>
<rect x="42" y="58" width="41" height="100" fill="#2A8FBD"/>
<rect x="29" y="110" width="41" height="48" fill="#45BBF1"/>
<path d="M110.251 37.1136H34.7514C27.9514 15.5136 42.5847 9.11357 50.7514 8.61357C59.7514 2.11357 80.2514 -6.98643 90.2514 8.61357C121.051 6.21357 116.418 26.6136 110.251 37.1136Z" fill="white"/>
</svg>
