<svg width="150" height="150" viewBox="0 0 150 150" fill="none" xmlns="http://www.w3.org/2000/svg">
<path d="M137 75C137 109.242 109.242 137 75 137C40.7583 137 13 109.242 13 75C13 40.7583 40.7583 13 75 13C109.242 13 137 40.7583 137 75Z" fill="#FBFBFB"/>
<path d="M23.5062 105.114H99.0062C105.806 83.5136 91.1728 77.1136 83.0062 76.6136C74.0062 70.1136 53.5062 61.0136 43.5062 76.6136C12.7062 74.2136 17.3395 94.6136 23.5062 105.114Z" fill="#E3E3E3"/>
<path d="M44.5062 124.114H120.006C126.806 102.514 112.173 96.1136 104.006 95.6136C95.0062 89.1136 74.5062 80.0136 64.5062 95.6136C33.7062 93.2136 38.3395 113.614 44.5062 124.114Z" fill="#EEEEEE"/>
<path d="M128.251 58.1136H52.7514C45.9514 36.5136 60.5847 30.1136 68.7514 29.6136C77.7514 23.1136 98.2514 14.0136 108.251 29.6136C139.051 27.2136 134.418 47.6136 128.251 58.1136Z" fill="#E3E3E3"/>
<path d="M107.251 77.1136H31.7514C24.9514 55.5136 39.5847 49.1136 47.7514 48.6136C56.7514 42.1136 77.2514 33.0136 87.2514 48.6136C118.051 46.2136 113.418 66.6136 107.251 77.1136Z" fill="#EEEEEE"/>
</svg>
