<svg width="150" height="150" viewBox="0 0 150 150" fill="none" xmlns="http://www.w3.org/2000/svg">
<path d="M137 75C137 109.242 109.242 137 75 137C40.7583 137 13 109.242 13 75C13 40.7583 40.7583 13 75 13C109.242 13 137 40.7583 137 75Z" fill="#FBFBFB"/>
<path d="M79 88C79 103.464 66.464 116 51 116C35.536 116 23 103.464 23 88C23 72.536 35.536 60 51 60C66.464 60 79 72.536 79 88Z" fill="#FFE600"/>
<path d="M32.5062 88.1136H108.006C114.806 66.5136 100.173 60.1136 92.0062 59.6136C83.0062 53.1136 62.5062 44.0136 52.5062 59.6136C21.7062 57.2136 26.3395 77.6136 32.5062 88.1136Z" fill="#E3E3E3"/>
<path d="M53.5062 80.1136H129.006C135.806 58.5136 121.173 52.1136 113.006 51.6136C104.006 45.1136 83.5062 36.0136 73.5062 51.6136C42.7062 49.2136 47.3395 69.6136 53.5062 80.1136Z" fill="#EEEEEE"/>
</svg>
