<svg width="150" height="150" viewBox="0 0 150 150" fill="none" xmlns="http://www.w3.org/2000/svg">
<g clip-path="url(#clip0)">
<path d="M137 75C137 109.242 109.242 137 75 137C40.7583 137 13 109.242 13 75C13 40.7583 40.7583 13 75 13C109.242 13 137 40.7583 137 75Z" fill="#010741"/>
<path d="M76.5763 91.6569C86.7122 88.941 92.7852 78.7388 90.1407 68.8697C87.4963 59.0005 77.1359 53.2017 67 55.9176C74.0529 60.9268 85.8423 75.0876 76.5763 91.6569Z" fill="#FFE500"/>
<path d="M-18.4938 100.114H57.0062C63.8062 78.5136 49.1728 72.1136 41.0062 71.6136C32.0062 65.1136 11.5062 56.0136 1.50617 71.6136C-29.2938 69.2136 -24.6605 89.6136 -18.4938 100.114Z" fill="#E3E3E3"/>
<path d="M81.5062 65.1136H157.006C163.806 43.5136 149.173 37.1136 141.006 36.6136C132.006 30.1136 111.506 21.0136 101.506 36.6136C70.7062 34.2136 75.3395 54.6136 81.5062 65.1136Z" fill="#EEEEEE"/>
</g>
<defs>
<clipPath id="clip0">
<rect width="150" height="150" fill="white"/>
</clipPath>
</defs>
</svg>
