<svg width="150" height="150" viewBox="0 0 150 150" fill="none" xmlns="http://www.w3.org/2000/svg">
<path d="M137 75C137 109.242 109.242 137 75 137C40.7583 137 13 109.242 13 75C13 40.7583 40.7583 13 75 13C109.242 13 137 40.7583 137 75Z" fill="#FBFBFB"/>
<path d="M28.5062 75.1136H104.006C110.806 53.5136 96.1728 47.1136 88.0062 46.6136C79.0062 40.1136 58.5062 31.0136 48.5062 46.6136C17.7062 44.2136 22.3395 64.6136 28.5062 75.1136Z" fill="#E3E3E3"/>
<path d="M49.5062 67.1136H125.006C131.806 45.5136 117.173 39.1136 109.006 38.6136C100.006 32.1136 79.5062 23.0136 69.5062 38.6136C38.7062 36.2136 43.3395 56.6136 49.5062 67.1136Z" fill="#EEEEEE"/>
<rect x="45" y="79" width="1" height="7" fill="#C4C4C4"/>
<rect x="51" y="86" width="1" height="7" fill="#C4C4C4"/>
<rect x="57" y="79" width="1" height="7" fill="#C4C4C4"/>
<rect x="63" y="83" width="1" height="7" fill="#C4C4C4"/>
<rect x="69" y="86" width="1" height="7" fill="#C4C4C4"/>
<rect x="75" y="83" width="1" height="7" fill="#C4C4C4"/>
<rect x="81" y="79" width="1" height="7" fill="#C4C4C4"/>
<rect x="86" y="86" width="1" height="7" fill="#C4C4C4"/>
<rect x="45" y="93" width="1" height="7" fill="#C4C4C4"/>
<rect x="51" y="100" width="1" height="7" fill="#C4C4C4"/>
<rect x="57" y="93" width="1" height="7" fill="#C4C4C4"/>
<rect x="63" y="97" width="1" height="7" fill="#C4C4C4"/>
<rect x="69" y="100" width="1" height="7" fill="#C4C4C4"/>
<rect x="75" y="97" width="1" height="7" fill="#C4C4C4"/>
<rect x="81" y="93" width="1" height="7" fill="#C4C4C4"/>
<rect x="86" y="100" width="1" height="7" fill="#C4C4C4"/>
</svg>
