<svg width="145" height="45" viewBox="0 0 145 45" fill="none" xmlns="http://www.w3.org/2000/svg">
<mask id="mask0" mask-type="alpha" maskUnits="userSpaceOnUse" x="0" y="0" width="45" height="45">
<path d="M45 22.5C45 34.9264 34.9264 45 22.5 45C10.0736 45 0 34.9264 0 22.5C0 10.0736 10.0736 0 22.5 0C34.9264 0 45 10.0736 45 22.5Z" fill="#FFE600"/>
</mask>
<g mask="url(#mask0)">
<path d="M45 22.5C45 34.9264 34.9264 45 22.5 45C10.0736 45 0 34.9264 0 22.5C0 10.0736 10.0736 0 22.5 0C34.9264 0 45 10.0736 45 22.5Z" fill="#FFD963"/>
<path d="M6.38364 19.2339L22.1346 19.2339C23.5533 14.7985 20.5004 13.4843 18.7967 13.3816C16.9191 12.0469 12.6423 10.1783 10.5561 13.3816C4.13052 12.8888 5.09714 17.0778 6.38364 19.2339Z" fill="#E3E3E3"/>
<rect x="19.9597" y="27.2177" width="14.879" height="24.3145" fill="#1F769E"/>
<rect x="-2.54031" y="27.2177" width="14.879" height="24.3145" fill="#1F769E"/>
<rect x="14.8791" y="15.2419" width="14.879" height="36.2903" fill="#2A8FBD"/>
<rect x="10.1613" y="34.1129" width="14.879" height="17.4194" fill="#45BBF1"/>
<rect x="32.2984" y="30.8468" width="14.879" height="18.1452" fill="#45BBF1"/>
<path d="M43.9599 11.6129L26.5333 11.6129C24.9637 6.5439 28.3413 5.04197 30.2263 4.92463C32.3037 3.39923 37.0354 1.26368 39.3436 4.92463C46.4527 4.36141 45.3833 9.1488 43.9599 11.6129Z" fill="white"/>
<path d="M22.5486 6.53226L5.12199 6.53226C3.55244 1.46325 6.93005 -0.038682 8.81505 -0.156021C10.8924 -1.68142 15.6241 -3.81697 17.9323 -0.156021C25.0414 -0.719244 23.972 4.06815 22.5486 6.53226Z" fill="white"/>
</g>
<path d="M56.976 41L54.24 25.4H58.464L59.328 32.216C59.408 33.032 59.496 33.848 59.592 34.664C59.688 35.48 59.776 36.296 59.856 37.112H59.952C60.096 36.296 60.24 35.48 60.384 34.664C60.528 33.848 60.672 33.032 60.816 32.216L62.304 25.4H65.76L67.248 32.216C67.392 33 67.536 33.808 67.68 34.64C67.824 35.456 67.968 36.28 68.112 37.112H68.208C68.288 36.28 68.376 35.456 68.472 34.64C68.568 33.824 68.656 33.016 68.736 32.216L69.6 25.4H73.536L70.944 41H65.712L64.512 34.808C64.384 34.2 64.272 33.584 64.176 32.96C64.096 32.336 64.016 31.736 63.936 31.16H63.84C63.76 31.736 63.672 32.336 63.576 32.96C63.496 33.584 63.392 34.2 63.264 34.808L62.112 41H56.976Z" fill="#45BBF1"/>
<path d="M80.7412 41.288C79.8612 41.288 79.0452 41.152 78.2932 40.88C77.5412 40.592 76.8852 40.184 76.3252 39.656C75.7812 39.112 75.3492 38.448 75.0292 37.664C74.7092 36.88 74.5492 35.992 74.5492 35C74.5492 34.024 74.7092 33.152 75.0292 32.384C75.3652 31.6 75.7972 30.936 76.3252 30.392C76.8692 29.848 77.4852 29.432 78.1732 29.144C78.8612 28.856 79.5732 28.712 80.3092 28.712C81.1892 28.712 81.9572 28.864 82.6132 29.168C83.2692 29.472 83.8132 29.888 84.2452 30.416C84.6772 30.944 84.9972 31.56 85.2052 32.264C85.4292 32.968 85.5412 33.72 85.5412 34.52C85.5412 34.888 85.5172 35.232 85.4692 35.552C85.4372 35.872 85.4052 36.104 85.3732 36.248H78.5332C78.7252 36.968 79.0692 37.472 79.5652 37.76C80.0612 38.032 80.6452 38.168 81.3172 38.168C81.7332 38.168 82.1332 38.112 82.5172 38C82.9172 37.872 83.3332 37.688 83.7652 37.448L85.1092 39.896C84.4532 40.36 83.7252 40.712 82.9252 40.952C82.1412 41.176 81.4132 41.288 80.7412 41.288ZM78.4852 33.56H82.0372C82.0372 33.096 81.9172 32.696 81.6772 32.36C81.4532 32.008 81.0292 31.832 80.4052 31.832C79.9412 31.832 79.5332 31.968 79.1812 32.24C78.8452 32.512 78.6132 32.952 78.4852 33.56Z" fill="#45BBF1"/>
<path d="M90.6917 41.288C90.1317 41.288 89.6277 41.192 89.1797 41C88.7317 40.792 88.3477 40.52 88.0277 40.184C87.7237 39.848 87.4917 39.456 87.3317 39.008C87.1717 38.56 87.0917 38.088 87.0917 37.592C87.0917 36.344 87.6037 35.368 88.6277 34.664C89.6517 33.944 91.3157 33.464 93.6197 33.224C93.5237 32.392 92.9637 31.976 91.9397 31.976C91.5077 31.976 91.0517 32.064 90.5717 32.24C90.0917 32.4 89.5397 32.648 88.9157 32.984L87.4757 30.296C88.3237 29.784 89.1797 29.392 90.0437 29.12C90.9077 28.848 91.8117 28.712 92.7557 28.712C94.3077 28.712 95.5237 29.16 96.4037 30.056C97.2997 30.936 97.7477 32.36 97.7477 34.328V41H94.3877L94.0997 39.848H94.0037C93.5237 40.28 93.0117 40.632 92.4677 40.904C91.9397 41.16 91.3477 41.288 90.6917 41.288ZM92.1317 38.12C92.4677 38.12 92.7397 38.048 92.9477 37.904C93.1717 37.744 93.3957 37.544 93.6197 37.304V35.672C92.6277 35.816 91.9477 36.032 91.5797 36.32C91.2117 36.608 91.0277 36.92 91.0277 37.256C91.0277 37.832 91.3957 38.12 92.1317 38.12Z" fill="#45BBF1"/>
<path d="M104.914 41.288C104.13 41.288 103.458 41.176 102.898 40.952C102.354 40.712 101.898 40.376 101.53 39.944C101.178 39.512 100.914 39 100.738 38.408C100.578 37.8 100.498 37.128 100.498 36.392V32.216H98.9141V29.144L100.738 29L101.218 25.88H104.626V29H107.362V32.216H104.626V36.32C104.626 36.992 104.77 37.456 105.058 37.712C105.346 37.952 105.682 38.072 106.066 38.072C106.258 38.072 106.442 38.056 106.618 38.024C106.81 37.976 106.978 37.928 107.122 37.88L107.746 40.856C107.426 40.952 107.042 41.048 106.594 41.144C106.146 41.24 105.586 41.288 104.914 41.288Z" fill="#45BBF1"/>
<path d="M109.579 41V24.296H113.707V28.184L113.515 30.248C113.931 29.88 114.427 29.536 115.003 29.216C115.595 28.88 116.299 28.712 117.115 28.712C118.427 28.712 119.379 29.16 119.971 30.056C120.563 30.936 120.859 32.12 120.859 33.608V41H116.731V34.136C116.731 33.368 116.635 32.856 116.443 32.6C116.251 32.344 115.947 32.216 115.531 32.216C115.147 32.216 114.827 32.296 114.571 32.456C114.315 32.616 114.027 32.84 113.707 33.128V41H109.579Z" fill="#45BBF1"/>
<path d="M129.116 41.288C128.236 41.288 127.42 41.152 126.668 40.88C125.916 40.592 125.26 40.184 124.7 39.656C124.156 39.112 123.724 38.448 123.404 37.664C123.084 36.88 122.924 35.992 122.924 35C122.924 34.024 123.084 33.152 123.404 32.384C123.74 31.6 124.172 30.936 124.7 30.392C125.244 29.848 125.86 29.432 126.548 29.144C127.236 28.856 127.948 28.712 128.684 28.712C129.564 28.712 130.332 28.864 130.988 29.168C131.644 29.472 132.188 29.888 132.62 30.416C133.052 30.944 133.372 31.56 133.58 32.264C133.804 32.968 133.916 33.72 133.916 34.52C133.916 34.888 133.892 35.232 133.844 35.552C133.812 35.872 133.78 36.104 133.748 36.248H126.908C127.1 36.968 127.444 37.472 127.94 37.76C128.436 38.032 129.02 38.168 129.692 38.168C130.108 38.168 130.508 38.112 130.892 38C131.292 37.872 131.708 37.688 132.14 37.448L133.484 39.896C132.828 40.36 132.1 40.712 131.3 40.952C130.516 41.176 129.788 41.288 129.116 41.288ZM126.86 33.56H130.412C130.412 33.096 130.292 32.696 130.052 32.36C129.828 32.008 129.404 31.832 128.78 31.832C128.316 31.832 127.908 31.968 127.556 32.24C127.22 32.512 126.988 32.952 126.86 33.56Z" fill="#45BBF1"/>
<path d="M136.181 41V29H139.541L139.829 31.064H139.925C140.373 30.248 140.901 29.656 141.509 29.288C142.133 28.904 142.741 28.712 143.333 28.712C143.701 28.712 143.997 28.736 144.221 28.784C144.445 28.816 144.645 28.872 144.821 28.952L144.149 32.504C143.925 32.456 143.709 32.416 143.501 32.384C143.309 32.336 143.077 32.312 142.805 32.312C142.373 32.312 141.917 32.464 141.437 32.768C140.973 33.056 140.597 33.576 140.309 34.328V41H136.181Z" fill="#45BBF1"/>
<path d="M60.672 21.288C59.68 21.288 58.656 21.112 57.6 20.76C56.56 20.392 55.616 19.824 54.768 19.056L57.12 16.224C57.68 16.672 58.28 17.04 58.92 17.328C59.576 17.6 60.192 17.736 60.768 17.736C61.392 17.736 61.84 17.64 62.112 17.448C62.4 17.256 62.544 16.984 62.544 16.632C62.544 16.44 62.496 16.28 62.4 16.152C62.304 16.024 62.16 15.904 61.968 15.792C61.792 15.68 61.576 15.576 61.32 15.48C61.064 15.368 60.768 15.248 60.432 15.12L58.488 14.304C58.072 14.144 57.672 13.936 57.288 13.68C56.904 13.408 56.568 13.096 56.28 12.744C55.992 12.376 55.76 11.96 55.584 11.496C55.424 11.032 55.344 10.52 55.344 9.96C55.344 9.288 55.488 8.664 55.776 8.088C56.064 7.496 56.464 6.984 56.976 6.552C57.488 6.104 58.096 5.752 58.8 5.496C59.52 5.24 60.304 5.112 61.152 5.112C62.048 5.112 62.952 5.28 63.864 5.616C64.792 5.952 65.616 6.48 66.336 7.2L64.272 9.792C63.744 9.424 63.232 9.144 62.736 8.952C62.256 8.76 61.728 8.664 61.152 8.664C60.64 8.664 60.24 8.752 59.952 8.928C59.664 9.104 59.52 9.368 59.52 9.72C59.52 10.088 59.72 10.376 60.12 10.584C60.536 10.776 61.104 11.008 61.824 11.28L63.72 12.024C64.696 12.408 65.448 12.944 65.976 13.632C66.504 14.32 66.768 15.208 66.768 16.296C66.768 16.952 66.632 17.584 66.36 18.192C66.088 18.8 65.688 19.336 65.16 19.8C64.648 20.248 64.016 20.608 63.264 20.88C62.512 21.152 61.648 21.288 60.672 21.288Z" fill="#FFD963"/>
<path d="M68.9389 21V9H73.0669V21H68.9389ZM71.0029 7.512C70.3309 7.512 69.7789 7.32 69.3469 6.936C68.9149 6.552 68.6989 6.056 68.6989 5.448C68.6989 4.84 68.9149 4.344 69.3469 3.96C69.7789 3.576 70.3309 3.384 71.0029 3.384C71.6749 3.384 72.2269 3.576 72.6589 3.96C73.0909 4.344 73.3069 4.84 73.3069 5.448C73.3069 6.056 73.0909 6.552 72.6589 6.936C72.2269 7.32 71.6749 7.512 71.0029 7.512Z" fill="#FFD963"/>
<path d="M75.8529 21V9H79.2129L79.5009 10.464H79.5969C80.0769 10 80.5889 9.592 81.1329 9.24C81.6929 8.888 82.3809 8.712 83.1969 8.712C84.0129 8.712 84.6849 8.88 85.2129 9.216C85.7569 9.536 86.1889 10.008 86.5089 10.632C87.0049 10.12 87.5409 9.672 88.1169 9.288C88.6929 8.904 89.3889 8.712 90.2049 8.712C91.5169 8.712 92.4769 9.16 93.0849 10.056C93.6929 10.936 93.9969 12.12 93.9969 13.608V21H89.8689V14.136C89.8689 13.368 89.7729 12.856 89.5809 12.6C89.3889 12.344 89.0849 12.216 88.6689 12.216C88.1569 12.216 87.5969 12.52 86.9889 13.128V21H82.8609V14.136C82.8609 13.368 82.7649 12.856 82.5729 12.6C82.3809 12.344 82.0769 12.216 81.6609 12.216C81.1489 12.216 80.5889 12.52 79.9809 13.128V21H75.8529Z" fill="#FFD963"/>
<path d="M96.6889 25.224V9H100.049L100.337 10.104H100.433C100.881 9.688 101.385 9.352 101.945 9.096C102.505 8.84 103.089 8.712 103.697 8.712C104.401 8.712 105.041 8.856 105.617 9.144C106.193 9.432 106.681 9.84 107.081 10.368C107.497 10.896 107.809 11.536 108.017 12.288C108.241 13.04 108.353 13.88 108.353 14.808C108.353 15.848 108.209 16.768 107.921 17.568C107.649 18.368 107.281 19.048 106.817 19.608C106.353 20.152 105.817 20.568 105.209 20.856C104.617 21.144 104.001 21.288 103.361 21.288C102.369 21.288 101.473 20.888 100.673 20.088L100.817 21.912V25.224H96.6889ZM102.353 17.928C102.833 17.928 103.249 17.704 103.601 17.256C103.953 16.808 104.129 16.008 104.129 14.856C104.129 13.864 103.985 13.152 103.697 12.72C103.425 12.288 103.009 12.072 102.449 12.072C102.129 12.072 101.841 12.136 101.585 12.264C101.345 12.392 101.089 12.616 100.817 12.936V17.352C101.057 17.576 101.305 17.728 101.561 17.808C101.817 17.888 102.081 17.928 102.353 17.928Z" fill="#FFD963"/>
<path d="M114.307 21.288C113.603 21.288 113.011 21.184 112.531 20.976C112.067 20.752 111.691 20.44 111.403 20.04C111.115 19.64 110.907 19.168 110.779 18.624C110.667 18.064 110.611 17.448 110.611 16.776V4.296H114.739V16.92C114.739 17.336 114.811 17.616 114.955 17.76C115.115 17.904 115.267 17.976 115.411 17.976C115.491 17.976 115.555 17.976 115.603 17.976C115.667 17.976 115.747 17.96 115.843 17.928L116.323 20.952C116.099 21.048 115.819 21.128 115.483 21.192C115.163 21.256 114.771 21.288 114.307 21.288Z" fill="#FFD963"/>
<path d="M123.327 21.288C122.447 21.288 121.631 21.152 120.879 20.88C120.127 20.592 119.471 20.184 118.911 19.656C118.367 19.112 117.935 18.448 117.615 17.664C117.295 16.88 117.135 15.992 117.135 15C117.135 14.024 117.295 13.152 117.615 12.384C117.951 11.6 118.383 10.936 118.911 10.392C119.455 9.848 120.071 9.432 120.759 9.144C121.447 8.856 122.159 8.712 122.895 8.712C123.775 8.712 124.543 8.864 125.199 9.168C125.855 9.472 126.399 9.888 126.831 10.416C127.263 10.944 127.583 11.56 127.791 12.264C128.015 12.968 128.127 13.72 128.127 14.52C128.127 14.888 128.103 15.232 128.055 15.552C128.023 15.872 127.991 16.104 127.959 16.248H121.119C121.311 16.968 121.655 17.472 122.151 17.76C122.647 18.032 123.231 18.168 123.903 18.168C124.319 18.168 124.719 18.112 125.103 18C125.503 17.872 125.919 17.688 126.351 17.448L127.695 19.896C127.039 20.36 126.311 20.712 125.511 20.952C124.727 21.176 123.999 21.288 123.327 21.288ZM121.071 13.56H124.623C124.623 13.096 124.503 12.696 124.263 12.36C124.039 12.008 123.615 11.832 122.991 11.832C122.527 11.832 122.119 11.968 121.767 12.24C121.431 12.512 121.199 12.952 121.071 13.56Z" fill="#FFD963"/>
</svg>
