<svg width="150" height="150" viewBox="0 0 150 150" fill="none" xmlns="http://www.w3.org/2000/svg">
<path d="M137 75C137 109.242 109.242 137 75 137C40.7583 137 13 109.242 13 75C13 40.7583 40.7583 13 75 13C109.242 13 137 40.7583 137 75Z" fill="#FBFBFB"/>
<path d="M89.3606 61.6212C77.3825 62.3258 53.784 61.296 55.2149 51.5401C57.0035 39.3452 64.483 39.6704 68.0602 43.898C71.6374 48.1256 73.2634 65.6862 46.1094 65.8488" stroke="#E1E1E1" stroke-width="4"/>
<path d="M109.361 85.6212C97.3825 86.3258 73.784 85.296 75.2149 75.5401C77.0035 63.3452 84.483 63.6704 88.0602 67.898C91.6374 72.1256 93.2634 89.6862 66.1094 89.8488" stroke="#E1E1E1" stroke-width="4"/>
</svg>
